<?xml version="1.0" encoding="UTF-8"?>
<!DOCTYPE svg PUBLIC "-//W3C//DTD SVG 1.1//EN" "http://www.w3.org/Graphics/SVG/1.1/DTD/svg11.dtd">
<!-- Creator: CorelDRAW -->
<svg xmlns="http://www.w3.org/2000/svg" xml:space="preserve" width="850px" height="850px" version="1.1" style="shape-rendering:geometricPrecision; text-rendering:geometricPrecision; image-rendering:optimizeQuality; fill-rule:evenodd; clip-rule:evenodd"
viewBox="0 0 850 850"
 xmlns:xlink="http://www.w3.org/1999/xlink">
 <defs>
  <style type="text/css">
   <![CDATA[
    .fil1 {fill:#FEFEFE}
    .fil0 {fill:url(#id0)}
   ]]>
  </style>
  <linearGradient id="id0" gradientUnits="userSpaceOnUse" x1="425" y1="850" x2="425" y2="0">
   <stop offset="0" style="stop-opacity:1; stop-color:#1AA8DC"/>
   <stop offset="0.490196" style="stop-opacity:1; stop-color:#AE3B89"/>
   <stop offset="1" style="stop-opacity:1; stop-color:#F26270"/>
  </linearGradient>
 </defs>
 <g id="Layer_x0020_1">
  <metadata id="CorelCorpID_0Corel-Layer"/>
  <circle class="fil0" cx="425" cy="425" r="425"/>
  <g id="_391380024">
   <g>
    <g>
     <path class="fil1" d="M249 540l-54 0c-6,0 -17,0 -22,-10 -1,-5 -2,-10 0,-15 3,-5 6,-8 11,-10 4,-2 13,-6 16,-8 0,-3 1,-6 4,-11l-32 -26c-3,-2 -4,-7 -1,-10 27,-35 69,-6 84,3 0,0 1,1 2,2l52 -23 -71 -76c-3,-2 -3,-6 -2,-9 2,-2 4,-4 7,-4l55 5c1,0 3,0 4,1l81 52 60 -27c31,-13 57,-6 72,5 11,8 17,18 15,28 0,5 -3,14 -16,19l-262 114c-1,0 -2,0 -3,0zm-62 -86l31 26c3,3 4,7 1,11 -5,5 -5,7 -5,9 -1,8 -6,10 -25,19 -1,0 -2,1 -2,2 -1,1 -1,2 0,3 1,2 6,2 8,2l52 0 261 -112c3,-2 7,-5 8,-8 0,-5 -3,-10 -9,-15 -12,-9 -33,-14 -58,-3l-64 28c-2,0 -5,0 -7,-1l-83 -53 -34 -3 66 71c2,1 3,4 2,6 -1,3 -2,5 -4,6l-66 28c-4,2 -7,0 -13,-4 -20,-14 -43,-26 -59,-12zm67 2c0,0 0,0 0,0l0 0z"/>
    </g>
    <g>
     <path class="fil1" d="M480 607c-71,0 -135,-37 -172,-99 -2,-3 -1,-7 2,-10 4,-2 8,0 10,3 34,57 94,91 160,91 103,0 186,-83 186,-186 0,-102 -83,-186 -186,-186 -83,1 -157,57 -179,137 -1,4 -5,6 -9,5 -4,-1 -6,-5 -5,-9 24,-87 104,-147 193,-147 111,0 201,90 201,200 0,111 -90,201 -201,201z"/>
    </g>
    <g>
     <path class="fil1" d="M480 607c-41,0 -75,-54 -88,-138 0,-4 2,-8 6,-8 5,-1 8,2 9,6 11,73 41,125 73,125 42,0 78,-85 78,-186 0,-101 -36,-186 -78,-186 -41,0 -77,84 -78,183 0,4 -3,7 -7,7 0,0 0,0 0,0 -4,0 -7,-4 -7,-8 1,-110 42,-197 93,-197 51,1 92,89 92,201 0,113 -41,201 -93,201z"/>
    </g>
    <g>
     <path class="fil1" d="M480 496c-35,0 -70,-5 -101,-13 -4,0 -7,-5 -6,-8 1,-4 5,-7 9,-6 30,8 64,12 98,12 101,0 186,-34 186,-75 0,-41 -85,-75 -186,-75 -67,0 -129,15 -163,40 -3,2 -8,1 -10,-2 -2,-3 -1,-8 2,-10 37,-26 101,-42 172,-42 112,0 200,39 200,89 0,50 -88,90 -201,90z"/>
    </g>
    <g>
     <path class="fil1" d="M651 645l-453 0c-4,0 -7,-3 -7,-8 0,-4 3,-7 7,-7l453 0c5,0 8,3 8,7 0,5 -3,8 -8,8z"/>
    </g>
   </g>
  </g>
 </g>
</svg>
